<svg width="800" height="800" viewBox="0 0 800 800" fill="none" xmlns="http://www.w3.org/2000/svg">
<path d="M0 0H800V800H0V0Z" fill="#04101F"/>
<path d="M266.667 200C266.667 236.819 236.819 266.667 200 266.667C163.181 266.667 133.333 236.819 133.333 200C133.333 163.181 163.181 133.333 200 133.333C236.819 133.333 266.667 163.181 266.667 200Z" fill="#3A85E4"/>
<path d="M400 133.333C400 59.6954 340.305 0 266.667 0C193.029 0 133.333 59.6954 133.333 133.333H400Z" fill="#3A85E4"/>
<path d="M266.667 266.667C266.667 340.305 206.971 400 133.333 400C59.6954 400 0 340.305 0 266.667H266.667Z" fill="#3A85E4"/>
<path d="M533.333 200C533.333 236.819 563.181 266.667 600 266.667C636.819 266.667 666.667 236.819 666.667 200C666.667 163.181 636.819 133.333 600 133.333C563.181 133.333 533.333 163.181 533.333 200Z" fill="#3A85E4"/>
<path d="M400 133.333C400 59.6954 459.695 0 533.333 0C606.971 0 666.667 59.6954 666.667 133.333H400Z" fill="#3A85E4"/>
<path d="M533.333 266.667C533.333 340.305 593.029 400 666.667 400C740.305 400 800 340.305 800 266.667H533.333Z" fill="#3A85E4"/>
<path d="M266.667 600C266.667 563.181 236.819 533.333 200 533.333C163.181 533.333 133.333 563.181 133.333 600C133.333 636.819 163.181 666.667 200 666.667C236.819 666.667 266.667 636.819 266.667 600Z" fill="#3A85E4"/>
<path d="M400 666.667C400 740.305 340.305 800 266.667 800C193.029 800 133.333 740.305 133.333 666.667H400Z" fill="#3A85E4"/>
<path d="M266.667 533.333C266.667 459.695 206.971 400 133.333 400C59.6954 400 0 459.695 0 533.333H266.667Z" fill="#3A85E4"/>
<path d="M533.333 600C533.333 563.181 563.181 533.333 600 533.333C636.819 533.333 666.667 563.181 666.667 600C666.667 636.819 636.819 666.667 600 666.667C563.181 666.667 533.333 636.819 533.333 600Z" fill="#3A85E4"/>
<path d="M400 666.667C400 740.305 459.695 800 533.333 800C606.971 800 666.667 740.305 666.667 666.667H400Z" fill="#3A85E4"/>
<path d="M533.333 533.333C533.333 459.695 593.029 400 666.667 400C740.305 400 800 459.695 800 533.333H533.333Z" fill="#3A85E4"/>
<path d="M333.333 400C333.333 363.181 363.181 333.333 400 333.333C436.819 333.333 466.667 363.181 466.667 400C466.667 436.819 436.819 466.667 400 466.667C363.181 466.667 333.333 436.819 333.333 400Z" fill="#FC6736"/>
<path d="M266.667 466.667C266.667 540.305 326.362 600 400 600C473.638 600 533.333 540.305 533.333 466.667H266.667Z" fill="#FC6736"/>
<path d="M266.667 333.333C266.667 259.695 326.362 200 400 200C473.638 200 533.333 259.695 533.333 333.333H266.667Z" fill="#FC6736"/>
</svg>
