<svg width="120" height="120" viewBox="0 0 120 120" fill="none" xmlns="http://www.w3.org/2000/svg">
<path d="M0 0H120V120H0V0Z" fill="#15191E"/>
<path d="M40 30C40 35.5228 35.5228 40 30 40C24.4772 40 20 35.5228 20 30C20 24.4772 24.4772 20 30 20C35.5228 20 40 24.4772 40 30Z" fill="#2FC6D1"/>
<path d="M60 20C60 8.95431 51.0457 0 40 0C28.9543 0 20 8.95431 20 20H60Z" fill="#2FC6D1"/>
<path d="M40 40C40 51.0457 31.0457 60 20 60C8.95431 60 0 51.0457 0 40H40Z" fill="#2FC6D1"/>
<path d="M80 30C80 35.5228 84.4772 40 90 40C95.5229 40 100 35.5228 100 30C100 24.4772 95.5229 20 90 20C84.4772 20 80 24.4772 80 30Z" fill="#2FC6D1"/>
<path d="M60 20C60 8.95431 68.9543 0 80 0C91.0457 0 100 8.95431 100 20H60Z" fill="#2FC6D1"/>
<path d="M80 40C80 51.0457 88.9543 60 100 60C111.046 60 120 51.0457 120 40H80Z" fill="#2FC6D1"/>
<path d="M40 90C40 84.4772 35.5228 80 30 80C24.4772 80 20 84.4772 20 90C20 95.5229 24.4772 100 30 100C35.5228 100 40 95.5229 40 90Z" fill="#2FC6D1"/>
<path d="M60 100C60 111.046 51.0457 120 40 120C28.9543 120 20 111.046 20 100H60Z" fill="#2FC6D1"/>
<path d="M40 80C40 68.9543 31.0457 60 20 60C8.95431 60 0 68.9543 0 80H40Z" fill="#2FC6D1"/>
<path d="M80 90C80 84.4772 84.4772 80 90 80C95.5229 80 100 84.4772 100 90C100 95.5229 95.5229 100 90 100C84.4772 100 80 95.5229 80 90Z" fill="#2FC6D1"/>
<path d="M60 100C60 111.046 68.9543 120 80 120C91.0457 120 100 111.046 100 100H60Z" fill="#2FC6D1"/>
<path d="M80 80C80 68.9543 88.9543 60 100 60C111.046 60 120 68.9543 120 80H80Z" fill="#2FC6D1"/>
<path d="M50 60C50 54.4772 54.4772 50 60 50C65.5228 50 70 54.4772 70 60C70 65.5228 65.5228 70 60 70C54.4772 70 50 65.5228 50 60Z" fill="#D65A31"/>
<path d="M40 70C40 81.0457 48.9543 90 60 90C71.0457 90 80 81.0457 80 70H40Z" fill="#D65A31"/>
<path d="M40 50C40 38.9543 48.9543 30 60 30C71.0457 30 80 38.9543 80 50H40Z" fill="#D65A31"/>
</svg>
